<?xml version="1.0" encoding="utf-8"?>
<!-- Generator: Adobe Illustrator 17.1.0, SVG Export Plug-In . SVG Version: 6.00 Build 0)  -->
<!DOCTYPE svg PUBLIC "-//W3C//DTD SVG 1.1//EN" "http://www.w3.org/Graphics/SVG/1.1/DTD/svg11.dtd">
<svg version="1.1" id="Layer_1" xmlns="http://www.w3.org/2000/svg" xmlns:xlink="http://www.w3.org/1999/xlink" x="0px" y="0px"
	 viewBox="0 0 282 39" enable-background="new 0 0 282 39" xml:space="preserve">
<path fill="#00679A" d="M0,0v39h217.6l-83.5-0.7H282v-0.2L134.1,37H282v-0.2l-147.9-1.2H282v-0.2l-147.9-1.2H282v-0.2l-147.9-1.2
	H282v-0.2l-147.9-1.2H282v-0.2l-147.9-1.2H282V30l-147.9-1.2H282v-0.2l-147.9-1.2H282v-0.2l-147.9-1.2H282V26l-147.9-1.2H282v-0.2
	l-147.9-1.2H282v-0.2l-147.9-1.2H282v-0.2l-147.9-1.2H282v-0.2l-147.9-1.2H282v-0.2L134.1,18H282v-0.2l-147.9-1.2H282v-0.2
	l-147.9-1.2H282v-0.2L134.1,14H282v-0.2l-147.9-1.2H282v-0.2l-147.9-1.2H282v-0.2L134.1,9.9H282V9.7L134.1,8.6H282V8.4L134.1,7.2
	H282V7L134.1,5.9H282V5.7L134.1,4.5H282V4.3L134.1,3.2H282V3L134.1,1.8H282V1.6L134.1,0.4H282V0.3L248.2,0H0z"/>
</svg>
