<?xml version="1.0" encoding="utf-8"?>
<!-- Generator: Adobe Illustrator 17.1.0, SVG Export Plug-In . SVG Version: 6.00 Build 0)  -->
<!DOCTYPE svg PUBLIC "-//W3C//DTD SVG 1.1//EN" "http://www.w3.org/Graphics/SVG/1.1/DTD/svg11.dtd">
<svg version="1.1" id="Layer_1" xmlns="http://www.w3.org/2000/svg" xmlns:xlink="http://www.w3.org/1999/xlink" x="0px" y="0px"
	 viewBox="0 0 658 39" enable-background="new 0 0 658 39" xml:space="preserve">
<path fill="#006699" d="M0,0v39h507.8L313,38.3h345v-0.2L313,37h345v-0.2l-345-1.2h345v-0.2l-345-1.2h345v-0.2l-345-1.2h345v-0.2
	l-345-1.2h345v-0.2l-345-1.2h345V30l-345-1.2h345v-0.2l-345-1.2h345v-0.2l-345-1.2h345V26l-345-1.2h345v-0.2l-345-1.2h345v-0.2
	l-345-1.2h345v-0.2l-345-1.2h345v-0.2l-345-1.2h345v-0.2L313,18h345v-0.2l-345-1.2h345v-0.2l-345-1.2h345v-0.2L313,14h345v-0.2
	l-345-1.2h345v-0.2l-345-1.2h345v-0.2L313,9.9h345V9.7L313,8.6h345V8.4L313,7.2h345V7L313,5.9h345V5.7L313,4.5h345V4.3L313,3.2h345
	V3L313,1.8h345V1.6L313,0.4h345V0.3L579.2,0H0z"/>
</svg>
