<?xml version="1.0" encoding="utf-8"?>
<svg version="1.1" xmlns="http://www.w3.org/2000/svg" xmlns:xlink="http://www.w3.org/1999/xlink" x="0px" y="0px"
	 viewBox="0 0 142 18" height="18px" width="142px">
<g id="Layer_5">
</g>
<g id="Logo_1_">
	<g id="nutrition_xA0_Image_1_">
		<g>
			<path fill="#FFFFFF" d="M90.1,6l-1.1,5.8c-0.1,0.3-0.3,0.6-0.6,0.9C88,12.9,87.6,13,87.3,13c-0.5,0-0.8-0.1-1-0.4l-2.1-3.1
				L83.5,13H82l1.1-5.8c0.1-0.3,0.3-0.6,0.6-0.9S84.4,6,84.8,6c0.5,0,0.8,0.1,1,0.4l2.1,3.1L88.5,6H90.1z"/>
			<path fill="#FFFFFF" d="M98.5,6l-0.7,3.5c-0.2,1-0.7,1.8-1.6,2.5c-0.9,0.7-1.9,1-2.9,1c-0.9,0-1.7-0.3-2.3-0.8s-0.9-1.2-0.9-2.1
				c0-0.2,0-0.4,0.1-0.6L90.9,6h2.7l-0.7,3.5c-0.1,0.5-0.1,0.9-0.1,1.1c0,0.7,0.3,1.1,0.9,1.1c0.5,0,0.9-0.3,1.2-0.8
				c0.2-0.3,0.3-0.8,0.4-1.4v0L95.8,6H98.5z"/>
			<path fill="#FFFFFF" d="M105.7,6l-0.2,1.2h-1.8c-0.3,0-0.4,0.1-0.4,0.3l-1.1,5.5h-2.4l1.1-5.5v0c0-0.2-0.1-0.2-0.3-0.2h-1.8L99,6
				H105.7z"/>
			<path fill="#FFFFFF" d="M112.8,7.7c0,0.1,0,0.2,0,0.3c-0.1,0.5-0.4,0.9-0.9,1.3c-0.4,0.3-0.9,0.5-1.6,0.6l2.2,3.1h-3l-1.7-2.4
				l-0.5,2.4h-2.7l1.4-7h3.4c0.9,0,1.6,0.1,2.2,0.3C112.4,6.6,112.8,7.1,112.8,7.7 M110.1,7.9c0-0.2-0.1-0.4-0.3-0.5
				c-0.2-0.1-0.4-0.2-0.7-0.2h-0.7l-0.3,1.7h0.7c0.3,0,0.6-0.1,0.8-0.2c0.3-0.2,0.4-0.4,0.5-0.6C110.1,8,110.1,8,110.1,7.9"/>
			<polygon fill="#FFFFFF" points="116.4,6 115,13 112.6,13 114,6 			"/>
			<path fill="#FFFFFF" d="M123.6,6l-0.2,1.2h-1.8c-0.2,0-0.4,0.1-0.4,0.3l-1.1,5.5h-2.4l1.1-5.5v0c0-0.2-0.1-0.2-0.3-0.2h-1.8
				l0.2-1.2H123.6z"/>
			<polygon fill="#FFFFFF" points="126.3,6 124.9,13 122.5,13 123.9,6 			"/>
			<path fill="#FFFFFF" d="M133.9,8.9c0,0.2,0,0.4-0.1,0.6c-0.2,1-0.7,1.8-1.6,2.5c-0.9,0.7-1.9,1-2.9,1c-0.9,0-1.7-0.3-2.3-0.8
				c-0.6-0.6-0.9-1.2-0.9-2.1c0-0.2,0-0.4,0.1-0.6c0.2-1,0.7-1.8,1.6-2.5c0.9-0.7,1.9-1,2.9-1c0.9,0,1.7,0.3,2.3,0.8
				C133.6,7.4,133.9,8.1,133.9,8.9 M131.3,8.3c0-0.7-0.3-1.1-0.8-1.1c-0.5,0-0.9,0.3-1.2,0.8c-0.2,0.3-0.3,0.8-0.4,1.4l0,0v0
				c-0.1,0.5-0.1,0.9-0.1,1.1c0,0.7,0.3,1.1,0.9,1.1c0.5,0,0.9-0.3,1.2-0.8c0.2-0.3,0.3-0.8,0.4-1.4v0l0,0
				C131.2,9,131.3,8.6,131.3,8.3"/>
			<path fill="#FFFFFF" d="M141.8,6l-1.1,5.8c-0.1,0.3-0.3,0.6-0.6,0.9c-0.3,0.2-0.7,0.4-1.1,0.4c-0.5,0-0.8-0.1-1-0.4l-2.1-3.1
				l-0.7,3.5h-1.5l1.1-5.8c0.1-0.3,0.3-0.6,0.6-0.9c0.3-0.2,0.7-0.4,1.1-0.4c0.5,0,0.8,0.1,1,0.4l2.1,3.1l0.7-3.5H141.8z"/>
		</g>
	</g>
	<g id="triav_xA0_Image_1_">
		<g>
			<path fill="#FFFFFF" d="M35.3,4.2l-0.4,1.6h-3.2c-0.4,0-0.7,0.1-0.8,0.3l-1.9,7.2h-4.3l1.9-7.2v0c0-0.2-0.2-0.3-0.6-0.3H23
				l0.4-1.6H35.3z"/>
			<path fill="#FFFFFF" d="M48.9,6.4c0,0.1,0,0.3-0.1,0.4c-0.2,0.7-0.7,1.2-1.6,1.7c-0.7,0.4-1.7,0.6-2.8,0.8l4,4H43l-3.1-3.1
				l-0.8,3.1h-4.8l2.4-9.1h6c1.6,0,2.9,0.1,4,0.4C48.1,5,48.9,5.6,48.9,6.4 M44.1,6.7c0-0.3-0.2-0.5-0.6-0.7
				c-0.3-0.2-0.7-0.2-1.2-0.2h-1.2l-0.6,2.2h1.2c0.5,0,1-0.1,1.4-0.3c0.5-0.2,0.8-0.5,0.9-0.8C44.1,6.8,44.1,6.7,44.1,6.7"/>
			<polygon fill="#FFFFFF" points="56,4.2 53.6,13.2 49.3,13.2 51.8,4.2 			"/>
			<path fill="#FFFFFF" d="M68.3,13.2h-4.6l-0.3-1.1H58l-0.9,1.1h-2.4l6.2-7.8c0.3-0.4,0.7-0.7,1.3-0.9c0.6-0.2,1.1-0.3,1.7-0.3
				c0.6,0,1.1,0.1,1.6,0.3c0.5,0.2,0.7,0.5,0.8,0.9L68.3,13.2z M63,10.5l-0.9-3.6l-2.9,3.6H63z"/>
			<path fill="#FFFFFF" d="M81.3,4.2L75.1,12c-0.3,0.4-0.7,0.7-1.3,0.9c-0.6,0.2-1.1,0.3-1.7,0.3c-0.6,0-1.1-0.1-1.6-0.3
				c-0.5-0.2-0.7-0.5-0.8-0.9l-2-7.9h4.6l1.6,6.3l5-6.3H81.3z"/>
		</g>
	</g>
	<g id="logo_xA0_Image_1_">
		<path fill="#FFFFFF" d="M12,17.3c-0.2,0.1-0.3,0.1-0.5,0.2c0,0,0,0,0-0.1c0,0,0-0.1,0-0.2c0-0.2,0-0.5-0.1-0.8
			c-0.1-0.5-0.4-1.1-0.6-1.8c-0.1-0.3-0.1-0.8-0.2-1.2l0,0l0,0c-0.1-0.2-0.1-0.4-0.2-0.7c0-0.1-0.1-0.2-0.1-0.2c0-0.1,0-0.1,0-0.2
			l0,0c0-0.2,0.1-0.6,0.2-0.8c0.3-0.4,0.4-1,0.6-1.3c0.6-0.7,1-1.1,1-2.5c0,0,0-0.1,0-0.1c0.1,0,0.1,0,0.2,0h0
			c0.9,0,1.6-0.4,2.1-0.8c0.3-0.2,0.6-0.4,0.8-0.5c0.1-0.1,0.2-0.1,0.2-0.2c0.1-0.1,0.1-0.1,0.1-0.2c0-0.1-0.1-0.6-0.3-1.1
			c-0.2-0.5-0.7-1-1-1.4C14,3.3,13.9,3.1,13.8,3c-0.1-0.1-0.1-0.1-0.1-0.2c0-0.1-0.1-0.3-0.3-0.3c-0.1,0-0.2,0-0.3,0c0,0,0,0,0,0
			c-0.2,0-0.4,0.1-0.6,0.1c-0.3,0.1-0.7,0.1-0.9,0.4c0,0,0,0.1,0,0.1c0,0,0,0,0,0l0,0c0,0,0,0,0,0c0,0,0,0.1,0,0.1v0
			c0,0.1,0,0.1,0,0.1c0,0,0,0,0,0c0,0,0,0,0,0.1c0,0,0,0,0,0.1c0,0,0,0.1,0,0.1c0,0.1,0,0.3,0.1,0.4C11.6,4,11.8,4.1,12,4.1h0
			c0,0,0,0,0,0c0,0,0,0,0,0c0.1,0,0.1,0,0.2,0c0,0,0.1,0,0.1-0.1c0,0,0,0,0-0.1c0,0,0.1,0,0.1-0.1c0-0.1,0-0.1,0-0.1l0,0
			c0.2-0.1,0.2-0.2,0.4-0.2h0c0,0,0,0,0,0c0,0,0,0,0.1,0c0.1,0.1,0.1,0.4,0.1,0.7c0,0.2,0,0.5,0,0.6c0,0.1,0,0.1,0,0.2
			c-0.1,0-0.2,0-0.3,0h0c-0.1,0-0.3,0-0.4,0.2c-0.2,0.2-0.3,0.2-0.5,0.2c0,0,0,0,0,0c-0.2,0-0.4-0.1-0.7-0.1h0c-0.1,0-0.2,0-0.2,0
			c-0.2,0-0.5,0.2-0.7,0.3c-0.2,0.1-0.4,0.2-0.6,0.2c0,0,0,0,0,0c0,0,0,0-0.1,0l0,0c0,0,0,0,0-0.1c0,0,0,0,0,0c0,0,0.1,0,0.1,0
			c0.1,0,0.2,0,0.3-0.2c0-0.1,0.1-0.2,0.1-0.3c0,0,0-0.1,0-0.1c0-0.1,0-0.1-0.1-0.1c0,0,0-0.1,0-0.1c0-0.1,0-0.1,0-0.2
			c0-0.1,0-0.1,0-0.2l0,0c0,0,0.1,0,0.1-0.1c0,0,0-0.1,0-0.1c0,0,0-0.1,0-0.1c-0.1-0.2-0.1-0.2-0.2-0.3c0,0,0-0.1,0-0.2
			c0-0.1,0-0.2,0-0.3C10,3.5,10,3.5,10,3.4c0,0,0,0,0,0l0,0c0,0,0-0.1-0.1-0.2c0-0.1,0-0.2-0.1-0.3l0,0c0,0,0-0.1,0.1-0.1
			c0,0,0-0.1-0.1-0.1C9.5,2.5,9.3,2.5,9.1,2.4c-0.1,0-0.3-0.1-0.5-0.1C8.3,2.3,8,2.4,7.8,2.5C7.4,2.8,7.1,3.2,7,3.8
			c0,0.1-0.1,0.2-0.1,0.3c0,0,0,0.1,0,0.1C6.9,4.3,7,4.3,7,4.4c0,0,0,0,0,0.1l0,0l0,0c0,0.1,0.1,0.2,0.1,0.3c0,0.2,0.1,0.3,0.2,0.4
			c0.1,0.1,0.1,0.1,0.2,0.3c0,0.1,0,0.2,0,0.2c0,0.2-0.1,0.4-0.5,0.6c0,0-0.1,0-0.1,0h0c0,0,0,0,0,0c-0.2,0-0.6-0.1-1-0.1
			c0,0-0.1,0-0.1,0c-0.2,0-0.3,0.1-0.5,0.2C5.3,6.4,5.2,6.4,5,6.4c0,0,0,0-0.1,0c0,0-0.1,0-0.2-0.1C4.7,6.2,4.6,6.2,4.4,6.2
			c0,0,0,0,0,0C4.3,6.2,4.1,6.2,4,6.3C4,6.3,3.9,6.4,3.8,6.4c0,0,0,0,0,0c0,0,0,0,0,0c0,0,0,0,0-0.1c0,0,0-0.1,0-0.2
			c0,0,0-0.1,0-0.1c0-0.3-0.1-0.6-0.1-0.9c0-0.1,0-0.2,0-0.3c0.2,0,0.4,0,0.5,0c0,0,0,0,0,0c0,0,0.1,0.1,0.1,0.1c0,0,0,0,0,0h0h0
			l0,0c0.1,0,0.2-0.1,0.2-0.1c0,0,0,0,0,0v0C4.8,4.8,5,4.6,5,4.4c0,0,0-0.1,0-0.1c0-0.2-0.1-0.3-0.2-0.5c0,0,0,0,0-0.1
			c0-0.1-0.1-0.1-0.1-0.2c-0.1,0-0.3-0.1-0.5-0.1c-0.1,0-0.2,0-0.2,0c-0.2,0-0.3,0.1-0.4,0.1c-0.1,0-0.2,0-0.3,0
			C3.1,3.7,3,3.8,2.9,3.9C2.8,4,2.7,4.2,2.7,4.4c0,0.2,0,0.3-0.1,0.4C2.4,5.5,2.1,5.8,2,6.3c0,0.1,0,0.1,0,0.2C2,6.7,2,6.8,2,7
			C2,7,2,7.1,2,7.2c0,0.2,0,0.3,0,0.4C2,7.7,2,7.8,2,8c0.1,0.2,0.3,0.3,0.4,0.3c0.2,0,0.4,0,0.6,0.1c0.4,0.1,0.7,0.5,1.4,0.5
			c0,0,0.1,0,0.1,0c0.2,0,0.3-0.1,0.5-0.2c0.1-0.1,0.2-0.1,0.3-0.1c0,0,0,0,0,0c0,0,0,0,0.1,0l0,0c0,0,0,0,0,0c0,0,0,0.1,0,0.3
			c0,0.1,0,0.1,0,0.2c0.1,0.3,0.2,0.5,0.4,0.7C6,9.9,6.1,10,6.2,10.1c0.2,0.4,0.3,0.6,0.3,1c0,0.3-0.1,0.8-0.3,1.5
			c-0.5,1.1-0.7,2.4-0.7,3.6c0,0.3,0,0.7,0.1,1c-2.2-0.9-4.1-2.7-5-5.2C-1.2,7.4,1.2,2.3,5.8,0.6s9.7,0.7,11.5,5.3
			C19,10.5,16.6,15.6,12,17.3 M5.7,16.5c0,0,0,0.1,0,0.1C5.7,16.6,5.7,16.5,5.7,16.5 M5.8,16.8c0,0.1,0,0.1,0,0.2
			C5.8,16.9,5.8,16.9,5.8,16.8 M5.8,17.1c0,0.1,0,0.1,0,0.2C5.8,17.2,5.8,17.1,5.8,17.1 M8.2,17.3C8.2,17.3,8.2,17.3,8.2,17.3
			C8.2,17.3,8.2,17.3,8.2,17.3 M8.2,17.2C8.2,17.2,8.2,17.2,8.2,17.2C8.2,17.2,8.2,17.2,8.2,17.2 M8.4,17.3
			C8.5,17.3,8.5,17.3,8.4,17.3C8.5,17.3,8.5,17.3,8.4,17.3L8.4,17.3c0.1,0,0.1,0.1,0.2,0.2c0,0,0.1,0.2,0.1,0.3c0,0,0,0,0,0.1
			c-0.2,0-0.4,0-0.5,0c0-0.1,0.1-0.3,0.1-0.4C8.4,17.4,8.4,17.3,8.4,17.3"/>
	</g>
</g>
</svg>
